<mxfile host="www.draw.io" modified="2019-11-15T06:51:10.905Z" agent="Mozilla/5.0 (Windows NT 6.1; WOW64) AppleWebKit/537.36 (KHTML, like Gecko) Chrome/69.0.3497.100 Safari/537.36" etag="d-anOoVgJBBCNWfacGcx" version="12.2.6" type="github" pages="1">
  <diagram id="Ok4uyZnLBfqOlFQD-5rp" name="Page-1">
    <mxGraphModel dx="1088" dy="508" grid="1" gridSize="10" guides="1" tooltips="1" connect="1" arrows="1" fold="1" page="1" pageScale="1" pageWidth="827" pageHeight="1169" math="0" shadow="0">
      <root>
        <mxCell id="0"/>
        <mxCell id="1" parent="0"/>
        <mxCell id="KFZvCWai1yywh9IZbj7K-6" value="" style="rounded=0;whiteSpace=wrap;html=1;" vertex="1" parent="1">
          <mxGeometry x="10" y="160" width="120" height="150" as="geometry"/>
        </mxCell>
        <mxCell id="KFZvCWai1yywh9IZbj7K-8" value="" style="rounded=0;whiteSpace=wrap;html=1;" vertex="1" parent="1">
          <mxGeometry x="10" y="100" width="240" height="60" as="geometry"/>
        </mxCell>
        <mxCell id="KFZvCWai1yywh9IZbj7K-9" value="" style="rounded=0;whiteSpace=wrap;html=1;" vertex="1" parent="1">
          <mxGeometry x="130" y="160" width="120" height="150" as="geometry"/>
        </mxCell>
        <mxCell id="KFZvCWai1yywh9IZbj7K-10" value="xxxGauge" style="rounded=1;whiteSpace=wrap;html=1;" vertex="1" parent="1">
          <mxGeometry x="20" y="200" width="70" height="20" as="geometry"/>
        </mxCell>
        <mxCell id="KFZvCWai1yywh9IZbj7K-11" value="业务逻辑" style="text;html=1;strokeColor=none;fillColor=none;align=center;verticalAlign=middle;whiteSpace=wrap;rounded=0;" vertex="1" parent="1">
          <mxGeometry x="80" y="120" width="80" height="20" as="geometry"/>
        </mxCell>
        <mxCell id="KFZvCWai1yywh9IZbj7K-12" value="metrics" style="text;html=1;strokeColor=none;fillColor=none;align=center;verticalAlign=middle;whiteSpace=wrap;rounded=0;" vertex="1" parent="1">
          <mxGeometry x="20" y="170" width="40" height="20" as="geometry"/>
        </mxCell>
        <mxCell id="KFZvCWai1yywh9IZbj7K-13" value="xxxTimer" style="rounded=1;whiteSpace=wrap;html=1;" vertex="1" parent="1">
          <mxGeometry x="20" y="230" width="70" height="20" as="geometry"/>
        </mxCell>
        <mxCell id="KFZvCWai1yywh9IZbj7K-16" value="xxxMeter" style="rounded=1;whiteSpace=wrap;html=1;" vertex="1" parent="1">
          <mxGeometry x="20" y="260" width="70" height="20" as="geometry"/>
        </mxCell>
      </root>
    </mxGraphModel>
  </diagram>
</mxfile>
